<?xml version="1.0" standalone="no"?>
<!DOCTYPE svg PUBLIC "-//W3C//DTD SVG 20010904//EN"
 "http://www.w3.org/TR/2001/REC-SVG-20010904/DTD/svg10.dtd">
<svg version="1.0" xmlns="http://www.w3.org/2000/svg"
 width="912.000000pt" height="912.000000pt" viewBox="0 0 912.000000 912.000000"
 preserveAspectRatio="xMidYMid meet">
<metadata>
Created by potrace 1.14, written by Peter Selinger 2001-2017
</metadata>
<g transform="translate(0.000000,912.000000) scale(0.100000,-0.100000)"
fill="#000000" stroke="none">
<path d="M3717 9053 c-1 -1 -56 -4 -122 -6 -66 -3 -120 -6 -120 -7 0 0 -33 -3
-74 -5 -63 -3 -123 -8 -241 -20 -62 -6 -148 -16 -180 -20 -19 -3 -57 -7 -85
-10 -27 -3 -75 -10 -105 -15 -30 -5 -77 -12 -105 -16 -27 -3 -59 -8 -70 -10
-11 -3 -36 -7 -55 -10 -163 -27 -609 -120 -662 -139 -7 -2 -24 -6 -38 -9 -14
-2 -45 -10 -70 -17 -56 -15 -60 -17 -85 -23 -39 -10 -161 -44 -250 -71 -49
-15 -97 -28 -105 -30 -27 -6 -364 -122 -402 -138 -21 -9 -38 -14 -38 -12 0 2
-33 -10 -72 -26 -40 -16 -73 -29 -73 -29 0 2 -28 -9 -125 -48 -41 -17 -87 -35
-103 -41 l-27 -11 47 -42 c26 -24 54 -50 63 -58 9 -8 54 -49 99 -90 46 -41 98
-88 116 -105 17 -16 71 -66 120 -110 48 -44 94 -86 101 -93 12 -11 27 -8 89
22 42 20 80 36 85 36 6 0 10 5 10 10 0 6 3 9 8 8 10 -2 40 10 83 33 20 10 39
16 43 12 3 -3 6 -1 6 5 0 7 6 12 13 12 8 0 27 6 43 14 37 19 85 38 102 42 8 1
28 9 45 18 30 14 321 125 342 130 13 4 27 9 90 31 28 9 70 23 95 30 25 8 83
26 130 40 47 15 141 42 210 60 69 19 125 35 125 35 0 1 9 3 20 5 11 3 70 16
130 30 61 14 119 28 130 31 11 2 34 7 50 10 17 2 48 10 70 15 22 6 54 13 70
15 17 2 41 6 55 9 14 3 41 8 60 11 52 8 82 13 110 19 14 3 47 7 74 10 27 3 51
7 55 9 3 2 33 7 66 10 33 4 67 9 75 11 8 2 46 7 84 10 38 4 83 8 100 10 17 2
60 7 96 10 36 3 84 7 108 10 159 14 340 20 637 20 328 0 516 -8 740 -30 28 -2
70 -6 95 -9 108 -10 198 -21 250 -30 14 -3 43 -7 65 -10 54 -7 164 -24 195
-30 13 -3 42 -9 65 -12 74 -12 112 -19 125 -24 3 -1 9 -2 13 -1 4 1 36 -5 71
-13 63 -15 90 -21 144 -31 106 -21 537 -137 577 -155 11 -5 36 -12 55 -16 19
-3 40 -9 45 -12 6 -4 15 -7 20 -8 11 -2 102 -32 125 -41 8 -4 18 -7 22 -7 3
-1 10 -4 14 -8 4 -5 15 -8 25 -8 10 0 33 -7 51 -14 18 -8 94 -38 168 -66 142
-54 205 -79 255 -100 17 -8 32 -14 35 -15 3 0 27 -11 54 -23 27 -12 50 -22 53
-22 2 0 31 -14 65 -30 70 -35 60 -14 -16 30 -66 39 -85 51 -116 71 -22 15 -75
45 -145 83 -11 6 -22 14 -25 17 -15 17 -425 228 -540 278 -30 13 -77 34 -105
47 -27 12 -90 39 -140 59 -49 20 -99 40 -110 44 -11 5 -33 14 -50 20 -16 6
-43 16 -60 22 -16 7 -34 13 -40 15 -5 1 -95 32 -200 69 -104 36 -201 68 -214
71 -14 3 -28 7 -33 10 -4 3 -17 7 -28 10 -11 2 -28 6 -39 8 -10 2 -39 11 -65
20 -25 9 -58 18 -73 21 -16 2 -59 14 -98 25 -38 12 -81 23 -95 25 -14 2 -63
13 -110 24 -47 11 -98 22 -115 25 -16 3 -41 7 -55 11 -14 3 -41 8 -60 11 -19
3 -41 7 -49 10 -7 2 -34 7 -60 10 -25 2 -53 7 -62 10 -9 2 -34 7 -55 9 -22 3
-64 9 -94 15 -53 8 -144 20 -205 25 -16 2 -46 5 -65 8 -56 9 -212 22 -410 33
-87 5 -639 11 -643 7z"/>
<path d="M8475 8289 c-66 -17 -127 -32 -135 -34 -8 -2 -22 -4 -30 -4 -36 -3
-40 -14 -24 -81 8 -35 17 -74 19 -85 2 -11 4 -22 5 -25 1 -3 3 -9 4 -15 1 -5
6 -28 10 -50 13 -59 15 -73 21 -97 3 -13 9 -48 15 -78 6 -30 12 -66 15 -80 13
-65 28 -157 29 -177 1 -13 5 -23 9 -23 5 0 6 -3 4 -7 -3 -5 1 -44 9 -88 15
-85 23 -139 29 -195 5 -49 24 -200 29 -230 3 -14 7 -56 11 -95 3 -38 8 -88 10
-110 2 -22 7 -76 10 -120 4 -44 8 -103 10 -131 14 -173 23 -392 25 -553 0 -58
6 -64 14 -16 16 101 19 123 22 150 1 17 6 50 9 75 7 49 9 62 19 160 4 36 9 81
12 100 2 19 7 73 10 120 3 47 7 105 9 130 18 228 24 778 10 1025 -18 337 -40
566 -53 564 -4 -1 -61 -14 -127 -30z"/>
<path d="M479 8114 c0 -16 -2 -38 -4 -49 -3 -11 -7 -42 -10 -70 -3 -27 -8 -61
-10 -75 -14 -89 -35 -271 -50 -450 -34 -383 -38 -921 -10 -1315 8 -122 25
-320 30 -350 1 -11 3 -25 4 -32 1 -11 34 -11 86 1 31 8 218 48 235 50 18 4 16
35 -10 136 -5 19 -11 46 -14 60 -5 27 -60 306 -71 355 -3 17 -6 37 -6 45 -1 8
-5 31 -9 50 -5 19 -11 55 -15 80 -3 25 -8 56 -10 70 -2 14 -7 45 -10 70 -3 25
-8 52 -10 60 -2 8 -7 40 -10 70 -3 30 -8 66 -10 80 -3 14 -7 52 -11 85 -6 60
-8 78 -18 170 -10 84 -16 147 -21 215 -9 127 -15 216 -20 280 -2 36 -7 160
-11 275 -3 116 -8 212 -10 214 -2 2 -4 -9 -5 -25z"/>
<path d="M4107 7964 c-1 -1 -90 -5 -197 -8 -107 -4 -215 -9 -240 -10 -126 -10
-363 -34 -405 -42 -10 -2 -37 -6 -60 -9 -22 -3 -53 -8 -68 -11 -16 -3 -38 -7
-50 -9 -12 -2 -40 -6 -63 -9 -112 -15 -526 -105 -584 -126 -14 -5 -36 -12 -50
-14 -38 -8 -154 -41 -265 -76 -55 -17 -105 -32 -112 -34 -7 -1 -16 -5 -19 -9
-4 -4 -16 -7 -26 -7 -10 0 -26 -4 -36 -9 -16 -8 -234 -89 -257 -95 -39 -10
-165 -63 -165 -69 0 -4 25 -31 56 -60 76 -69 92 -84 224 -207 62 -58 118 -108
124 -112 7 -4 23 -1 37 5 13 7 80 37 149 66 69 30 130 56 135 60 6 3 15 6 21
7 6 1 27 9 45 17 121 54 460 168 662 222 31 8 81 22 111 30 55 14 94 23 131
30 11 2 58 13 105 24 47 11 108 23 135 27 28 3 53 8 56 10 6 3 104 19 174 29
22 2 50 7 63 9 13 3 51 8 85 11 34 3 73 8 87 10 24 4 79 9 205 20 252 21 626
21 870 0 33 -3 91 -7 129 -10 65 -5 87 -7 189 -20 51 -7 117 -16 147 -21 14
-3 39 -6 55 -8 17 -2 57 -9 90 -15 33 -7 74 -14 90 -16 17 -2 39 -6 50 -9 100
-22 164 -37 185 -40 14 -3 25 -5 25 -6 0 -1 8 -3 19 -5 15 -3 54 -12 126 -30
3 -1 19 -5 35 -9 17 -4 37 -10 45 -13 8 -3 22 -7 30 -9 8 -2 74 -22 145 -44
72 -22 137 -42 145 -44 33 -9 216 -76 232 -86 10 -5 25 -10 33 -10 8 0 23 -5
33 -10 29 -17 164 -70 178 -70 8 0 14 -4 14 -10 0 -5 7 -10 15 -10 9 0 27 -7
40 -16 14 -9 25 -13 25 -9 0 3 13 -3 29 -14 39 -28 49 -27 14 2 -23 20 -77 53
-225 142 -114 69 -533 276 -533 265 0 -3 -11 3 -25 13 -13 9 -32 17 -42 17
-10 0 -18 5 -18 10 0 6 -3 9 -7 8 -5 -2 -44 12 -88 29 -91 36 -273 102 -295
107 -8 2 -44 14 -80 26 -36 12 -72 23 -81 25 -9 2 -34 8 -55 15 -108 31 -300
79 -391 96 -13 2 -35 6 -50 9 -98 20 -301 53 -368 60 -22 3 -60 7 -84 10 -90
12 -251 24 -391 30 -135 7 -261 11 -263 9z"/>
<path d="M7567 7404 c-2 -2 -109 -12 -136 -13 -10 -1 -12 -9 -7 -33 4 -18 9
-42 11 -53 2 -11 6 -36 9 -55 4 -19 8 -48 10 -65 8 -59 17 -131 23 -165 13
-86 13 -87 28 -235 23 -227 34 -389 40 -583 2 -74 6 -136 9 -140 3 -3 6 6 7
19 0 13 2 33 4 44 2 11 7 43 10 70 3 28 7 61 10 75 2 14 7 52 10 85 3 33 7 76
9 95 3 19 8 76 12 125 3 50 8 108 10 130 6 64 11 626 6 668 -4 34 -7 37 -34
35 -16 -1 -30 -3 -31 -4z"/>
<path d="M1477 7283 c-3 -5 -8 -25 -11 -47 -4 -21 -8 -41 -10 -45 -8 -12 -38
-331 -52 -546 -7 -103 -12 -665 -7 -702 l5 -32 74 2 c41 1 74 5 74 8 0 4 8 6
18 6 37 0 42 3 38 26 -2 12 -7 42 -11 67 -4 25 -9 54 -11 65 -2 11 -6 38 -9
60 -3 22 -7 51 -10 65 -3 14 -7 45 -10 70 -3 25 -8 60 -11 78 -2 18 -6 54 -9
80 -3 26 -8 70 -11 97 -7 52 -9 74 -19 210 -15 217 -19 290 -19 412 -1 73 -2
133 -3 133 -1 0 -4 -3 -6 -7z"/>
<path d="M4147 6903 c-1 0 -60 -4 -132 -8 -71 -4 -146 -8 -165 -10 -19 -3 -60
-7 -90 -10 -60 -6 -111 -12 -150 -20 -14 -3 -41 -7 -60 -9 -19 -3 -48 -8 -65
-11 -53 -9 -100 -18 -110 -21 -5 -1 -25 -5 -44 -9 -19 -3 -37 -8 -40 -10 -4
-2 -24 -6 -46 -9 -22 -4 -65 -13 -95 -22 -30 -8 -86 -24 -125 -34 -70 -18
-227 -66 -255 -77 -8 -3 -20 -7 -27 -8 -21 -5 -208 -75 -225 -85 -10 -6 -25
-10 -33 -10 -35 0 -17 -21 130 -156 22 -20 61 -56 87 -81 43 -40 49 -43 70
-32 13 7 25 12 28 12 3 0 39 15 80 34 130 59 496 189 560 199 8 1 31 7 50 13
19 6 89 23 155 37 183 39 196 42 255 49 25 3 52 8 60 10 16 4 103 15 155 20
171 15 250 19 435 19 225 0 427 -11 538 -29 21 -3 55 -8 77 -11 44 -6 137 -21
175 -29 82 -18 116 -23 122 -19 5 3 8 1 8 -5 0 -5 8 -10 18 -9 14 0 95 -20
232 -57 132 -35 386 -127 514 -184 38 -17 70 -30 72 -28 4 3 -148 97 -241 148
-113 62 -344 170 -415 194 -3 1 -12 5 -20 8 -88 37 -407 134 -505 153 -11 2
-31 6 -45 10 -14 3 -34 7 -45 9 -11 2 -31 6 -45 9 -66 13 -211 36 -265 41 -33
4 -76 8 -95 10 -102 11 -476 25 -483 18z"/>
<path d="M6632 6503 c-23 -4 -23 -6 -16 -101 3 -53 8 -113 9 -132 2 -19 4 -55
4 -79 2 -81 13 -31 25 104 14 154 16 215 9 214 -4 -1 -18 -4 -31 -6z"/>
<path d="M2429 6234 c0 -21 -2 -48 -4 -59 -2 -11 -6 -42 -9 -70 -3 -27 -8 -73
-11 -101 l-5 -51 29 5 29 4 -4 77 c-7 154 -13 224 -19 229 -3 3 -5 -12 -6 -34z"/>
<path d="M3690 5585 c-262 -47 -501 -202 -652 -424 -47 -69 -115 -202 -123
-240 -2 -9 -6 -24 -10 -33 -6 -15 -2 -18 21 -19 31 -1 188 -1 215 0 11 1 34
35 63 94 44 89 147 217 175 217 6 0 11 3 11 8 0 4 17 18 38 32 20 14 39 27 42
30 16 17 116 61 180 81 101 30 255 33 360 8 41 -10 83 -23 92 -29 10 -5 23
-10 29 -10 14 0 125 -67 158 -95 197 -168 294 -379 285 -620 -10 -307 -209
-576 -504 -680 -22 -8 -40 -12 -40 -8 0 3 -6 1 -12 -4 -7 -6 -20 -11 -28 -12
-8 0 -49 -4 -90 -9 -209 -20 -406 53 -552 206 -58 60 -158 206 -158 230 0 7
-7 24 -16 37 -9 14 -13 25 -9 25 4 0 3 6 -3 13 -6 7 -14 26 -17 42 -3 17 -8
40 -11 53 -2 13 -7 51 -10 85 -2 34 -5 67 -6 72 -1 13 12 95 18 117 5 15 -15
17 -233 17 -131 0 -250 0 -265 0 l-28 1 0 400 0 400 -127 -3 -128 -2 -3 -952
c-2 -759 0 -953 10 -954 46 -3 225 -4 236 -1 9 3 12 99 12 437 l0 433 124 1
125 0 6 -47 c10 -69 62 -247 87 -295 11 -23 19 -42 17 -42 -15 0 120 -174 182
-235 95 -93 87 -86 189 -146 110 -64 217 -104 319 -119 20 -3 48 -8 61 -10 33
-7 194 -7 250 0 55 7 136 24 170 35 52 17 65 21 70 22 3 1 39 18 80 39 119 61
254 170 350 284 33 40 80 112 80 124 0 5 3 11 8 13 20 9 80 177 98 273 14 77
16 131 11 246 -15 307 -178 588 -442 764 -74 49 -183 105 -205 105 -5 0 -21 5
-37 12 -32 13 -27 11 -78 22 -70 15 -78 16 -200 19 -66 2 -149 -2 -185 -8z"/>
<path d="M1440 5560 c0 -3 -17 -5 -38 -6 -114 -2 -215 -23 -322 -68 -102 -43
-149 -75 -220 -147 -86 -87 -107 -116 -146 -199 -78 -167 -99 -320 -93 -690 0
-58 1 -112 0 -120 -2 -61 1 -295 4 -299 3 -2 0 -10 -6 -18 -13 -15 -13 -15
149 -16 56 0 105 3 108 6 6 6 8 67 4 92 -1 6 -1 28 -1 50 1 22 2 65 2 97 1 31
-2 61 -5 67 -4 6 -3 11 3 11 6 0 7 11 2 28 -4 15 -6 38 -4 52 3 31 6 162 3
175 -3 12 -3 1 4 115 12 171 16 204 33 255 46 139 141 253 262 315 70 35 240
67 374 69 l117 1 0 -715 0 -715 -32 -1 c-18 0 -307 -1 -643 -2 l-610 -2 -5
-283 c-3 -156 -2 -286 1 -288 3 -2 4 -16 2 -31 l-5 -28 117 1 c64 1 118 4 121
7 3 3 5 90 4 194 l-1 189 656 0 655 0 0 -193 c0 -177 1 -193 18 -194 26 -1
195 -1 210 0 9 1 12 71 12 315 l0 313 -117 0 -118 0 -3 837 -2 837 -245 -3
c-135 -2 -245 -5 -245 -8z"/>
<path d="M5947 5564 c-1 -1 -20 -4 -42 -8 -46 -6 -79 -13 -103 -20 -9 -3 -28
-7 -42 -10 -88 -16 -256 -95 -342 -159 -200 -150 -299 -305 -355 -552 -24
-106 -23 -329 1 -435 10 -41 18 -81 19 -87 0 -7 5 -13 10 -13 6 0 8 -3 4 -6
-8 -9 32 -110 67 -169 153 -257 421 -417 737 -440 102 -8 327 -10 334 -3 6 6
11 118 5 118 -5 0 -4 74 2 100 2 13 -20 15 -137 17 -196 2 -289 16 -403 59
-192 72 -348 275 -389 505 -14 81 -10 254 8 325 37 142 117 274 216 355 83 68
193 127 284 153 87 25 107 27 264 33 83 2 152 7 154 9 6 6 7 64 1 64 -3 0 -5
18 -5 40 0 22 2 40 5 40 7 0 4 66 -4 79 -5 8 -280 13 -289 5z"/>
<path d="M6470 4852 c1 -683 2 -721 21 -791 40 -150 99 -233 219 -312 81 -53
144 -71 300 -85 118 -11 1231 -10 1239 1 11 14 138 407 156 483 3 9 29 111 59
226 31 115 58 225 61 245 4 20 8 41 9 46 6 25 16 72 20 95 3 14 12 59 20 100
8 41 17 91 20 110 3 19 8 46 10 60 6 34 14 85 21 145 4 28 8 57 11 65 2 8 6
47 9 85 3 39 8 84 11 100 3 17 7 56 9 87 l4 57 -275 0 c-203 0 -274 -3 -275
-12 -1 -7 -2 -23 -4 -37 -2 -14 -6 -54 -9 -90 -3 -36 -8 -76 -11 -90 -2 -14
-7 -45 -10 -70 -7 -51 -11 -77 -20 -135 -3 -22 -8 -56 -11 -75 -3 -19 -7 -48
-9 -65 -3 -16 -11 -61 -19 -100 -8 -38 -16 -83 -19 -100 -14 -74 -26 -131 -52
-250 -6 -27 -18 -76 -31 -128 -9 -32 -17 -66 -19 -75 -1 -9 -10 -44 -19 -77
-9 -33 -18 -67 -20 -76 -14 -59 -81 -276 -87 -283 -13 -15 -757 -11 -804 4
-142 45 -207 109 -238 231 -14 51 -17 317 -17 1325 l0 102 -125 1 -126 1 1
-718z"/>
<path d="M7279 5547 c0 -12 -2 -29 -3 -37 -4 -16 -15 -125 -22 -205 -2 -27 -7
-66 -10 -85 -3 -19 -7 -55 -10 -80 -2 -25 -7 -57 -10 -72 -3 -15 -7 -42 -10
-60 -2 -18 -6 -50 -8 -71 -3 -22 -13 -78 -22 -125 -9 -48 -18 -100 -20 -116
-2 -16 -8 -45 -14 -65 -5 -20 -11 -49 -14 -66 -3 -16 -10 -45 -15 -63 -5 -18
-10 -35 -10 -37 -1 -3 -1 -6 -2 -7 0 -2 -2 -10 -4 -18 -15 -68 -29 -121 -60
-225 -55 -180 -64 -215 -57 -216 48 -7 398 -2 407 6 10 8 82 248 100 335 2 8
4 15 5 15 1 0 3 9 5 20 1 11 12 60 24 108 12 49 24 101 26 115 3 23 20 104 41
197 3 11 6 34 9 50 2 17 10 68 19 115 8 47 18 105 21 130 3 25 8 59 11 76 6
40 13 96 19 159 3 28 7 68 10 90 2 22 7 66 9 97 l5 57 -210 -1 c-207 0 -209 0
-210 -21z"/>
<path d="M3497 3413 c-3 -2 -149 -14 -175 -13 -31 0 -91 -32 -124 -67 -81 -86
-97 -197 -64 -418 2 -11 4 -25 5 -31 0 -6 10 -21 21 -34 11 -13 20 -26 20 -29
0 -3 13 -20 28 -38 30 -33 125 -72 165 -67 12 1 36 5 52 7 178 24 261 282 130
402 -73 67 -74 67 -154 68 -99 2 -154 -23 -159 -72 -2 -18 -1 -40 3 -48 5 -14
7 -14 23 0 47 42 134 54 187 26 55 -29 93 -133 70 -186 -5 -10 -9 -21 -9 -25
-4 -34 -108 -95 -156 -92 -56 4 -128 59 -132 102 -2 31 -3 37 -9 47 -3 6 -7
66 -8 135 -2 117 -1 127 21 160 33 48 98 78 188 86 136 11 125 7 128 52 3 38
2 40 -23 38 -15 0 -27 -2 -28 -3z"/>
<path d="M1625 3230 c-93 -24 -136 -44 -187 -89 -87 -77 -126 -166 -123 -281
1 -41 8 -88 15 -105 7 -16 14 -32 15 -35 9 -36 56 -94 110 -137 72 -56 156
-74 275 -60 92 12 95 13 94 36 0 13 6 21 15 22 48 2 88 11 110 25 31 21 70 66
71 82 0 6 4 12 8 12 5 0 9 6 10 13 0 6 4 37 8 67 8 70 -19 134 -79 185 -59 51
-118 62 -234 45 -2 0 -3 -6 -3 -14 0 -8 -8 -17 -19 -21 -28 -9 -80 -62 -86
-88 -4 -13 -5 -38 -3 -55 4 -35 44 -95 58 -87 5 3 12 1 15 -5 9 -15 111 -10
135 7 25 18 43 80 29 105 -24 45 -115 47 -138 4 -7 -13 -11 -40 -8 -60 5 -38
1 -43 -23 -23 -25 20 -40 55 -40 90 0 43 46 90 81 84 13 -3 45 1 70 7 41 11
49 10 85 -10 21 -12 53 -39 69 -59 70 -86 16 -230 -95 -251 -8 -2 -31 -6 -50
-10 -19 -3 -48 -9 -65 -12 -99 -20 -193 5 -255 68 -100 102 -102 300 -3 391
38 36 111 72 134 66 11 -3 19 -2 19 1 0 4 18 6 39 6 47 -2 53 9 39 63 -11 44
-10 44 -93 23z"/>
<path d="M3885 3232 c-55 -12 -113 -46 -145 -87 -30 -39 -73 -138 -64 -148 2
-2 6 -21 10 -42 14 -91 55 -147 132 -183 63 -28 88 -32 151 -20 132 24 207
121 200 257 -3 54 -18 87 -61 137 -62 70 -146 103 -223 86z m131 -107 c34 -22
57 -62 61 -103 1 -19 4 -37 7 -39 8 -8 -16 -78 -36 -103 -24 -31 -69 -50 -118
-50 -81 0 -131 40 -150 120 -19 78 -2 124 60 169 34 24 47 28 96 25 31 -2 67
-10 80 -19z"/>
<path d="M4226 3231 c-2 -3 13 -34 34 -68 21 -34 36 -63 34 -66 -2 -2 10 -19
26 -37 35 -39 37 -50 12 -50 -10 0 -33 -13 -52 -28 -28 -24 -34 -36 -36 -76
-1 -26 -5 -50 -8 -53 -3 -3 -1 -14 4 -24 7 -11 7 -20 0 -24 -17 -11 1 -33 30
-37 42 -6 52 4 52 53 -1 54 14 113 32 128 8 7 39 14 70 16 l56 4 -3 -54 c-1
-30 1 -55 5 -55 3 0 3 -13 -2 -30 -5 -16 -5 -30 0 -30 4 0 7 -8 6 -17 -1 -16
9 -18 69 -14 12 1 15 19 15 100 l0 99 48 -2 c87 -5 112 -37 112 -145 0 -56 1
-57 28 -55 15 1 33 3 40 3 8 1 12 25 12 85 0 82 -1 86 -34 120 -18 20 -43 36
-55 36 -25 0 -27 12 -6 30 8 7 21 24 28 39 8 14 28 51 45 83 18 31 32 60 32
66 0 11 -71 14 -85 4 -6 -4 -22 -32 -37 -62 -16 -30 -39 -66 -52 -80 -68 -68
-76 -62 -76 55 l0 93 -43 0 c-43 0 -50 -7 -48 -55 1 -7 1 -20 1 -28 0 -8 0
-23 0 -32 1 -51 0 -67 -5 -71 -6 -6 -65 19 -65 28 0 4 -11 20 -24 35 -14 16
-33 47 -42 69 -10 23 -23 44 -28 48 -12 8 -85 8 -90 -1z"/>
<path d="M5047 3224 c-96 -29 -167 -135 -162 -240 4 -81 15 -111 60 -157 69
-72 163 -94 258 -60 48 17 53 26 47 78 -3 29 -6 29 -42 12 -57 -27 -81 -28
-136 -8 -54 20 -95 57 -87 78 2 7 0 15 -6 19 -14 8 -8 92 9 127 38 77 134 104
221 61 69 -35 76 -57 75 -231 0 -96 3 -143 10 -144 6 0 21 -2 33 -3 44 -5 47
5 48 156 0 125 -3 149 -21 189 -24 51 -63 91 -110 114 -46 22 -140 26 -197 9z"/>
<path d="M5475 3209 c-7 -10 -9 -36 -20 -214 -3 -55 -8 -130 -11 -167 -4 -58
-2 -68 15 -77 17 -10 58 -8 69 3 3 3 6 45 7 94 1 49 5 93 8 99 5 9 178 8 204
-2 9 -3 11 -31 8 -101 -4 -71 -1 -100 8 -106 20 -13 77 -9 78 5 0 6 1 46 2 87
1 41 7 78 12 82 6 5 5 8 -3 8 -7 0 -11 4 -7 9 3 5 7 68 10 140 l4 130 -40 -2
c-34 -1 -39 -5 -40 -27 -1 -14 -3 -36 -4 -50 -1 -14 -3 -40 -4 -58 l-1 -33
-112 4 c-62 3 -114 6 -115 6 -2 1 -1 41 2 89 l6 89 -35 1 c-20 1 -38 -3 -41
-9z"/>
<path d="M6070 3161 c-34 -14 -101 -63 -115 -85 -39 -59 -46 -175 -15 -234 30
-56 85 -107 128 -120 64 -19 142 -24 143 -10 0 7 3 25 5 41 3 17 0 27 -8 28
-7 0 -24 2 -38 5 -14 2 -37 6 -52 8 -29 4 -73 35 -94 64 -6 9 -14 37 -18 62
-5 36 -1 55 17 90 28 57 71 79 150 78 32 0 60 2 63 5 4 3 8 21 9 40 l4 35 -82
0 c-45 -1 -89 -4 -97 -7z"/>
<path d="M2770 3153 c-50 -15 -108 -51 -135 -82 -85 -102 -74 -238 28 -334 57
-54 107 -71 182 -64 77 7 76 6 135 56 81 67 111 201 65 288 -28 52 -76 98
-125 119 -35 15 -123 25 -150 17z m130 -101 c69 -44 96 -132 64 -212 -41 -103
-204 -117 -268 -24 -26 38 -34 122 -16 170 31 81 144 115 220 66z"/>
<path d="M6309 3142 c-1 -9 -3 -35 -5 -57 -10 -114 -15 -270 -10 -299 18 -95
162 -146 282 -101 35 13 46 26 73 76 38 73 36 124 -8 179 -46 59 -111 82 -185
67 -36 -8 -35 -6 -42 -57 -6 -39 -5 -42 12 -35 11 4 32 11 48 16 63 19 132
-58 107 -120 -7 -16 -20 -36 -30 -45 -37 -33 -136 -15 -166 31 -17 25 -17 81
0 213 14 113 14 140 -3 141 -9 0 -29 2 -44 4 -21 3 -28 -1 -29 -13z"/>
<path d="M2430 3104 c-30 -8 -68 -16 -84 -19 -70 -14 -121 -48 -159 -106 -26
-39 -31 -88 -24 -244 1 -34 -2 -50 -10 -51 -7 -1 -17 -2 -21 -3 -5 0 -10 -22
-10 -47 -2 -33 1 -43 10 -38 7 4 30 9 53 11 52 4 73 8 80 14 3 3 -1 38 -8 77
-8 38 -13 82 -12 96 0 14 -2 26 -5 26 -6 0 -3 57 5 97 8 36 60 79 111 92 25 7
48 10 51 8 4 -4 7 -27 19 -127 3 -30 8 -64 10 -75 3 -11 7 -44 10 -73 3 -28 7
-60 9 -70 2 -9 4 -21 4 -25 1 -5 20 -7 44 -5 39 4 42 6 41 33 -1 34 -9 99 -29
247 -3 18 -8 59 -11 91 -11 106 -10 106 -74 91z"/>
<path d="M6786 3077 c-3 -17 -8 -52 -11 -77 -3 -25 -8 -63 -10 -85 -6 -44 -13
-102 -20 -155 -3 -19 -7 -53 -10 -75 l-5 -40 45 -3 c30 -1 45 2 46 10 1 7 3
22 4 33 2 11 5 49 8 85 l5 65 37 -2 c67 -5 111 -22 125 -49 8 -15 14 -56 14
-97 0 -40 5 -75 11 -79 13 -10 65 -10 66 0 0 4 2 18 5 32 18 118 9 161 -46
202 -17 12 -30 24 -30 27 0 3 14 20 30 38 17 18 30 36 30 40 0 4 20 30 44 58
25 27 44 51 42 52 -1 1 -17 5 -35 8 -19 3 -38 8 -42 11 -4 2 -23 -19 -42 -48
-62 -96 -100 -123 -163 -116 -31 3 -36 18 -23 73 4 17 10 49 13 73 5 38 3 42
-17 43 -12 0 -32 2 -43 5 -18 3 -23 -2 -28 -29z"/>
<path d="M7330 3009 c-52 -23 -83 -50 -111 -96 -54 -87 -36 -223 39 -298 102
-103 286 -88 370 29 47 65 49 82 10 91 -18 4 -37 8 -43 9 -5 1 -18 -15 -28
-35 -27 -54 -49 -70 -111 -76 -55 -6 -116 9 -116 28 0 5 -6 9 -13 9 -20 0 -44
51 -46 100 -3 59 20 111 66 150 33 28 44 31 85 27 47 -4 124 -45 110 -59 -10
-9 -204 -81 -219 -81 -13 0 -12 -24 2 -67 7 -21 24 -26 41 -12 5 5 32 17 59
27 111 40 230 87 238 94 27 26 -84 148 -151 169 -61 18 -131 14 -182 -9z"/>
<path d="M4173 2452 c-79 -1 -143 -6 -143 -10 0 -10 301 -145 350 -157 8 -2
41 -13 74 -24 32 -11 62 -18 67 -15 5 3 9 51 9 107 l0 103 -107 -1 c-60 0
-172 -1 -250 -3z"/>
<path d="M4841 2435 c-41 -33 -170 -125 -176 -125 -10 0 -86 -53 -82 -57 5 -4
210 74 293 112 33 15 68 31 79 36 11 5 29 15 40 21 11 7 28 18 38 25 15 9 0
11 -73 10 -79 -1 -97 -4 -119 -22z"/>
<path d="M3157 2394 c-2 -2 -30 -6 -63 -8 -56 -5 -102 -11 -169 -21 -16 -2
-61 -7 -98 -10 -78 -7 -108 -12 -115 -20 -3 -2 -11 0 -19 6 -10 9 -13 8 -13
-3 0 -8 46 -61 103 -119 159 -161 262 -252 467 -412 9 -7 38 -28 65 -46 28
-19 52 -37 55 -40 7 -8 150 -103 175 -116 43 -24 70 -40 75 -45 5 -5 41 -26
100 -57 19 -10 37 -20 40 -23 8 -9 249 -125 348 -169 92 -40 393 -151 411
-151 6 0 10 99 11 239 l1 239 -88 28 c-48 15 -92 30 -98 34 -5 4 -39 17 -75
30 -120 42 -370 163 -496 240 -36 22 -68 40 -71 40 -5 0 -210 138 -236 160
-10 8 -28 23 -39 33 -12 9 -24 17 -27 17 -5 0 -20 12 -90 72 -8 7 -39 33 -68
59 -45 39 -75 54 -86 43z"/>
<path d="M5944 2313 c-151 -165 -182 -198 -255 -272 -155 -155 -278 -266 -414
-376 -96 -77 -89 -72 -195 -149 -52 -38 -111 -81 -130 -96 -19 -14 -43 -29
-52 -33 -10 -3 -18 -11 -18 -17 0 -5 -6 -10 -14 -10 -8 0 -21 -6 -28 -13 -17
-16 -99 -70 -208 -137 -47 -28 -74 -48 -60 -44 14 4 48 13 75 21 84 24 141 40
230 67 6 2 17 6 25 9 8 4 38 14 65 23 89 29 362 158 470 221 175 102 357 223
413 273 10 8 33 26 52 40 41 29 56 41 164 134 95 82 376 363 376 377 0 5 -11
10 -25 10 -14 1 -28 2 -32 3 -7 2 -85 11 -188 22 -59 7 -110 13 -146 18 -34 4
-39 1 -105 -71z"/>
<path d="M2125 2259 c-49 -10 -108 -21 -130 -24 -22 -3 -47 -8 -55 -10 -23 -7
-82 -18 -110 -21 -14 -1 -26 -3 -27 -4 -7 -6 -112 -23 -115 -19 -2 1 -13 -3
-26 -10 l-22 -12 25 -27 c14 -15 25 -31 25 -35 0 -5 6 -14 13 -21 6 -7 23 -28
37 -46 48 -64 121 -158 135 -174 6 -6 44 -51 85 -100 156 -185 397 -429 575
-581 39 -33 72 -62 75 -66 3 -3 39 -32 80 -64 41 -32 77 -62 80 -66 3 -3 21
-17 40 -30 19 -14 70 -50 112 -82 101 -75 364 -247 377 -247 6 0 11 -4 11 -10
0 -5 5 -10 10 -10 6 0 27 -11 48 -24 20 -12 39 -23 42 -22 3 0 19 -9 37 -22
17 -12 36 -22 42 -22 6 0 11 -3 11 -8 0 -4 25 -18 55 -31 30 -13 55 -28 55
-32 0 -5 4 -9 10 -9 5 0 71 -29 145 -65 137 -66 438 -195 456 -195 5 0 28 -8
52 -19 61 -27 245 -86 250 -81 9 9 9 32 8 330 l-1 295 -108 38 c-59 20 -114
39 -123 41 -32 8 -195 76 -309 128 -250 115 -439 218 -650 356 -63 41 -119 79
-125 84 -5 4 -39 29 -75 55 -36 25 -66 50 -68 55 -2 4 -8 8 -13 8 -8 0 -62 41
-132 100 -7 6 -21 18 -33 28 -172 141 -472 442 -601 601 -15 19 -39 47 -53 62
l-25 27 -90 -19z"/>
<path d="M6900 2269 c0 -27 -407 -561 -515 -675 -5 -6 -39 -44 -75 -84 -130
-147 -513 -525 -646 -637 -55 -45 -119 -100 -138 -117 -11 -10 -37 -30 -56
-45 -19 -14 -41 -32 -49 -39 -8 -8 -39 -32 -70 -55 -31 -22 -61 -46 -68 -51
-100 -87 -573 -402 -700 -468 -13 -6 -23 -16 -23 -21 0 -5 7 -4 15 3 8 7 15
10 15 7 0 -4 18 0 40 8 22 8 44 15 48 16 85 19 438 151 587 219 140 64 341
164 423 211 47 27 86 49 87 49 2 0 29 16 61 36 33 20 75 46 94 57 47 29 244
162 300 203 244 180 413 325 625 538 193 194 247 254 393 431 34 41 140 182
185 246 l47 67 -67 12 c-90 17 -87 16 -173 33 -41 9 -93 19 -115 23 -22 4 -44
8 -50 9 -5 2 -23 5 -40 8 -16 3 -41 8 -55 11 -63 13 -80 14 -80 5z"/>
</g>
</svg>
