<svg aria-hidden="true" style="position: absolute; width: 0; height: 0; overflow: hidden;" version="1.1" xmlns="http://www.w3.org/2000/svg" xmlns:xlink="http://www.w3.org/1999/xlink">
<defs>

<symbol id="logo" viewBox="0 0 854 894">
    <path d="M372 667c20 10 38 17 52 21v-22l-52 1zM215 285v-6l-1 10-3 27h6l-2-31zm253 381a10155 10155 0 0 0-10 0c-11 9-22 16-33 22a293 293 0 0 0 52-22h-9zm56-423c-134-47-257-5-307 15l29 27a421 421 0 0 1 360-1c-23-15-50-30-82-41zM20 93l-1 9a879 879 0 0 0-5 234l34-7c-17-72-27-148-28-226V93zm751 33c-44-29-96-57-158-78-259-92-499-8-591 30l20 18 36 33a804 804 0 0 1 693-3zm-52 569a531 531 0 0 1-295 210 725 725 0 0 0 238-221l57 11zM424 842a476 476 0 0 1-231-158l-58 11a553 553 0 0 0 288 210h1v-63zM119 181l-3 15c-5 44-7 85-5 125l21-2a809 809 0 0 1-13-138z" />
    <path d="m427 147 12 1c108 2 194 33 248 58-33-22-73-43-119-59-196-69-377-6-447 22l42 39c53-25 141-58 252-60l12-1zm-3 601v48a414 414 0 0 1-186-118l52-6c48 44 99 65 134 76zm192-70c-33 37-81 79-148 105l-15 5-28 8a490 490 0 0 0 43-28c44-30 77-64 104-95l44 5zm222-323c-5 60-18 120-39 182l-3 9H685c-18 0-31-3-36-5l-7-4-8-6c-7-6-11-14-14-25-2-7-2-17-2-28V355h25v124l1 17c1 4 3 11 8 16 5 6 12 7 17 9 7 2 13 1 17 1h63a822 822 0 0 0 34-167h55z" />
    <path d="M741 355a754 754 0 0 1-30 157h-42l1-4c18-53 25-106 29-153h42zM164 522V355h-32a268 268 0 0 0-42 4l-18 7c-7 4-14 10-20 17-8 9-13 20-16 33-2 7-3 18-3 31v65h26v-65l2-24a59 59 0 0 1 15-28c6-6 14-11 24-13l15-3h23v143H9v63h24v-39h131v39h24v-63h-24zm262-141a96 96 0 0 0-70-29c-22 0-42 7-60 21a99 99 0 0 0-35 52h26c5-15 14-27 28-36 12-9 26-13 40-13 20 0 38 7 52 22a74 74 0 0 1 0 105 72 72 0 0 1-53 22c-21 0-39-9-52-25a78 78 0 0 1-19-51v-5l2-9h-53v-80h-26v191h26v-87h25c3 27 14 49 33 66 19 16 41 24 66 24 27 0 50-10 70-29s29-42 29-69c0-28-10-51-29-70zm108 10c12-8 27-12 43-12h18v-24h-15c-11 0-22 1-32 4a99 99 0 0 0-60 42 107 107 0 0 0-1 100c12 19 27 31 45 38 12 5 27 7 45 7h18v-24h-21c-12 0-22-2-31-5-12-4-22-12-30-24-4-6-7-13-9-20s-3-15-3-22c0-13 3-24 8-34 6-11 14-19 25-26zM226 647l-9 1-5-38h-1l-6 1c-3 1-5 2-6 4-3 2-4 5-4 8v9l3 18-15 2v-8l5-1-1-10v-12c1-5 3-9 7-12 2-3 5-4 9-5l12-3 5-1 6 47zm52-29c0 7-2 13-6 18s-10 8-16 9c-7 0-13-1-18-6-5-4-8-9-9-16s1-13 5-18c5-5 10-8 17-9 7 0 13 1 18 6 5 4 8 9 9 16zm-9 1c-1-5-3-9-6-11-3-3-7-4-11-4a15 15 0 0 0-14 18c0 5 2 8 5 11s7 4 12 3c5 0 8-2 11-5 2-3 3-7 3-12zm64-5a25 25 0 0 1-9 21l-7 4-7 1a25 25 0 0 1-17-5l-8-11-2-13v-6c-1-10 1-18 5-23 3-5 7-8 13-10l12-1 13-1v8l-11 1c-8 0-13 2-16 4-6 3-8 9-7 18v9l2 13c2 4 5 7 10 9h5a16 16 0 0 0 15-17c0-4-1-7-3-9s-3-4-6-5l-4-1h-4l-6 2-6 4v-9a23 23 0 0 1 12-5h6l6 1 10 8c2 4 4 8 4 13zm55-2c0 7-2 13-6 18-5 4-11 7-17 7-7 1-13-2-18-6s-7-10-8-17c0-7 2-13 7-18 4-5 10-7 17-8 7 0 12 2 17 7s8 10 8 17zm-9 0c0-4-1-8-4-11s-7-4-12-4c-4 0-8 2-11 5s-4 7-4 11c1 5 2 9 5 12s7 4 11 4c5 0 9-2 12-5 2-3 4-7 3-12zm75-24-6 11-4 7-4 4 5 1 5 4 2 5v15h-8v-7c0-5-1-8-2-9-1-3-4-4-9-4h-5v20h-9v-20h-5c-5 0-8 1-9 4-1 2-2 4-2 9v7h-8v-15l2-5 5-4 5-1-4-4-4-7-6-11h10l4 9 6 8 4 2h2v-19h9v19h2l4-2 6-8 4-9h10zm54 48h-9l1-21c0-7-1-12-5-15-3-2-6-4-11-4-4 0-8 1-11 4s-5 7-5 12 2 10 5 13l11 4 6-2 6-3v9c-4 2-8 4-14 4-6-1-12-3-16-7-5-5-7-11-7-18 1-7 3-13 8-18 5-4 11-6 18-6s12 2 17 7 7 12 7 21l-1 20zm47 3-9-1 1-21-22-1-1 21h-9l3-47h8l-1 18 23 1 1-17h8l-2 47zm37 3-6-1c-8 0-14-3-18-9-4-4-6-10-5-16l2-10c2-3 5-6 9-8 2-2 5-3 8-3h14l-1 8h-12a14 14 0 0 0-10 7l-2 7 2 9 7 6 7 1 6 1-1 8zm47-13-4 9c-2 3-4 5-8 6l-5 1a27 27 0 0 1-13-2c-5-2-8-6-9-11v-11l2-25 9 1-3 27v6l4 5 6 2h5l4-2 3-6-1-5-3-4-5-2-5 1-4 2 1-9 9-2 7 2 5 4 4 6 1 7zm49-23-7 8-4 6-5 5 5 3 3 3 2 6-1 8-1 7-8-1 1-8-1-8c-1-3-3-5-8-6l-9-1-2 20-9-1 6-46 9 1-3 18 6 1c3 0 7-2 11-8l6-9 9 2zm50 33a24 24 0 0 1-21 18h-7c-3 0-7-2-10-4a24 24 0 0 1-10-24c1-7 4-12 10-16 5-4 11-5 18-4a24 24 0 0 1 20 18l-34 13-2-8 24-9-4-4-6-2c-4-1-8 0-11 3-3 2-5 6-6 11v8c1 3 3 5 5 6a17 17 0 0 0 7 4h5l4-1c3-1 5-2 6-4 2-2 3-5 3-7l9 2zm-565-18c-1-1-3-5-8-8-9-6-20-2-21-2v2c-1 1-6 2-9 7-3 4-3 10 1 15 3 4 9 4 10 4l7-1 3-3 2-6c-1-4-5-7-10-6-2 0-4 1-5 3l-1 1v5l1 3v1c-1 0-4-1-5-4-3-4-3-9 0-12l3-3h8l7-2 5 3c5 3 10 9 9 16s-6 11-7 12l-4 2-22 4-3-1c-10-1-17-10-17-11-7-10-7-25 2-35 4-4 9-6 12-7l13-1-2-10-14 3a37 37 0 0 0-25 27 36 36 0 0 0 24 42c7 2 15 1 20 0l7-1-1-4 8-1 4-1c6-4 9-10 9-11a21 21 0 0 0-1-20zm461-328v6l2-10 2-28-6 1 2 31zm92 18 2-15c6-43 8-85 6-125l-21 2a809 809 0 0 1 13 138zm100 13 1-9a878 878 0 0 0 5-235l-34 8c17 72 27 147 28 225v11z" />
</symbol>

<symbol id="home" viewBox="0 0 495 495">
    <path d="m487 226-75-76V64a28 28 0 0 0-57 0v30l-56-56a75 75 0 0 0-103 0L8 226a28 28 0 0 0 40 40L236 78c6-6 17-6 23 0l188 188a28 28 0 1 0 40-40z" />
    <path d="M258 132c-6-6-15-6-20 0L73 297c-3 3-4 6-4 10v120c0 28 23 51 51 51h82V352h92v126h82c28 0 51-23 51-51V307c0-4-2-7-4-10L258 132z" />
</symbol>

<symbol id="info" viewBox="0 0 16 16">
    <path
        fill-rule="evenodd"
        clip-rule="evenodd"
        d="M8 16A8 8 0 1 0 8 0a8 8 0 0 0 0 16zm0-9a1 1 0 0 1 1 1v3a1 1 0 0 1-2 0V8a1 1 0 0 1 1-1zm0-3a1 1 0 0 0 0 2 1 1 0 0 0 0-2z"
    />
</symbol>

<symbol id="contact" viewBox="0 0 32 32">
    <path
        fill-rule="evenodd"
        d="M24 16a2 2 0 1 1 0-4 2 2 0 0 1 0 4Zm-8 0a2 2 0 1 1 0-4 2 2 0 0 1 0 4Zm-8 0a2 2 0 1 1 0-4 2 2 0 0 1 0 4Zm8-16C7 0 0 6 0 14c0 4 2 8 6 11v7l7-4h3c9 0 16-6 16-14S25 0 16 0Z"
    />
</symbol>

<symbol id="close" viewBox="0 0 1024 1024">
    <path d="M195.2 195.2a64 64 0 0 1 90.5 0L512 421.5l226.3-226.3a64 64 0 0 1 90.5 90.5L602.5 512l226.3 226.3a64 64 0 0 1-90.5 90.5L512 602.5 285.7 828.8a64 64 0 0 1-90.5-90.5L421.5 512 195.2 285.7a64 64 0 0 1 0-90.5z" />
</symbol>

<symbol id="phone" viewBox="0 0 24 24">
    <path
        fill-rule="evenodd"
        clip-rule="evenodd"
        d="M17.35 22.23a21.73 21.73 0 0 1-9.9-5.68 21.73 21.73 0 0 1-5.68-9.9 2.76 2.76 0 0 1 1.12-2.92l2.33-1.66a3 3 0 0 1 4.2.73l1.47 2.12a2 2 0 0 1-.48 2.76l-1.17.84c.18.68.73 2.06 2.45 3.79 1.73 1.72 3.11 2.27 3.8 2.45l.83-1.17a2 2 0 0 1 2.76-.48l2.12 1.46a3 3 0 0 1 .73 4.21l-1.66 2.33a2.76 2.76 0 0 1-2.92 1.12Zm-8.49-7.1a19.65 19.65 0 0 0 8.98 5.16c.26.07.58-.03.8-.34l1.67-2.33a1 1 0 0 0-.25-1.4l-2.12-1.47-.9 1.26a1.8 1.8 0 0 1-1.82.74c-.99-.21-2.8-.9-4.94-3.03-2.14-2.13-2.82-3.95-3.03-4.94a1.8 1.8 0 0 1 .74-1.83l1.26-.9-1.47-2.11a1 1 0 0 0-1.4-.25L4.05 5.36c-.3.22-.4.54-.34.8a19.7 19.7 0 0 0 5.15 8.98Z"
    />
</symbol>

<symbol id="mail" viewBox="0 0 24 24">
    <path
        fill-rule="evenodd"
        clip-rule="evenodd"
        d="M16.5 21a1 1 0 0 1-.4 1.2A11 11 0 1 1 23 12l-.1 1.7c-.3 2-1.2 5.3-3.9 5.3-2.3 0-3.1-1.3-3.4-2.2A6 6 0 1 1 18 12v4c0 1 .5 1 .5 1 1 0 1.5-.8 1.9-1.7l.1-.4c.5-1.4.5-2.9.5-2.9a9 9 0 1 0-5.8 8.4 1 1 0 0 1 1.3.5ZM8 12a4 4 0 1 0 8 0 4 4 0 0 0-8 0Z"
    />
</symbol>

<symbol id="facebook" viewBox="0 0 24 24">
    <path
        fill-rule="evenodd"
        clip-rule="evenodd"
        d="M20 1a3 3 0 0 1 3 3v16a3 3 0 0 1-3 3H4a3 3 0 0 1-3-3V4a3 3 0 0 1 3-3h16Zm0 2c.6 0 1 .4 1 1v16c0 .6-.4 1-1 1h-5v-7h2a1 1 0 0 0 1-.7l.5-1.3c.1-.5-.2-1-.7-1H15V9c0-.5.5-1 1-1h2c.6 0 1-.4 1-1v-.7c0-.3-.2-.6-.5-.7-1.3-.3-2.5-.3-2.5-.3-2.5 0-4 1.7-4 3.2V11h-2a1 1 0 0 0-1 1v1c0 .6.4 1 1 1h2v7H4a1 1 0 0 1-1-1V4c0-.6.4-1 1-1h16Z"
    />
</symbol>

<symbol id="instagram" viewBox="0 0 24 24">
    <path
        fill-rule="evenodd"
        clip-rule="evenodd"
        d="M12 18a6 6 0 1 0 0-12 6 6 0 0 0 0 12Zm0-2a4 4 0 1 0 0-8 4 4 0 0 0 0 8Z"
    />

    <path d="M18 5a1 1 0 1 0 0 2 1 1 0 0 0 0-2Z" />
    <path
        fill-rule="evenodd"
        clip-rule="evenodd"
        d="M1.7 4.3C1 5.6 1 7.3 1 10.6v2.8c0 3.4 0 5 .7 6.3a6 6 0 0 0 2.6 2.6c1.3.7 3 .7 6.3.7h2.8c3.4 0 5 0 6.3-.7a6 6 0 0 0 2.6-2.6c.7-1.3.7-3 .7-6.3v-2.8c0-3.4 0-5-.7-6.3a6 6 0 0 0-2.6-2.6c-1.3-.7-3-.7-6.3-.7h-2.8c-3.4 0-5 0-6.3.7a6 6 0 0 0-2.6 2.6ZM13.4 3h-2.8a51.7 51.7 0 0 0-5.4.4 4 4 0 0 0-1.8 1.8c-.1.3-.3.7-.3 1.6L3 10.6v2.8a51.7 51.7 0 0 0 .4 5.4 4 4 0 0 0 1.8 1.8c.3.1.7.3 1.6.3l3.8.1h2.8a51.7 51.7 0 0 0 5.4-.4 4 4 0 0 0 1.8-1.8c.1-.3.3-.7.3-1.6l.1-3.8v-2.8a51.7 51.7 0 0 0-.4-5.4 4 4 0 0 0-1.8-1.8c-.3-.1-.7-.3-1.6-.3L13.4 3Z"
    />
</symbol>

<symbol id="youtube" viewBox="0 0 24 24">
    <path
        fill-rule="evenodd"
        clip-rule="evenodd"
        d="M9.5 7.1A1 1 0 0 0 8 8v8a1 1 0 0 0 1.5.9l7-4a1 1 0 0 0 0-1.8l-7-4ZM14 12l-4 2.3V9.7l4 2.3Z"
    />
    <path
        fill-rule="evenodd"
        clip-rule="evenodd"
        d="M0 12c0-3.7 0-5.6 1-7a5 5 0 0 1 1-1c1.4-1 3.3-1 7-1h6c3.7 0 5.6 0 7 1l1 1c1 1.4 1 3.3 1 7s0 5.6-1 7a5 5 0 0 1-1 1c-1.4 1-3.3 1-7 1H9c-3.7 0-5.6 0-7-1a5 5 0 0 1-1-1c-1-1.4-1-3.3-1-7Zm9-7h6l4.2.1c.9.1 1.3.3 1.6.5l.6.6c.2.3.4.7.5 1.6a43.5 43.5 0 0 1-.5 10 3 3 0 0 1-.6.6c-.3.2-.7.4-1.6.5L15 19H9l-4.2-.1c-.9-.1-1.3-.3-1.6-.5a3 3 0 0 1-.6-.6c-.2-.3-.4-.7-.5-1.6a43.5 43.5 0 0 1 .5-10l.6-.6c.3-.2.7-.4 1.6-.5L9 5Z"
    />
</symbol>

<symbol id="location" viewBox="0 0 24 24">
    <path
        fill-rule="evenodd"
        clip-rule="evenodd"
        d="M12 14a4.5 4.5 0 1 0 0-9 4.5 4.5 0 0 0 0 9Zm0-2a2.5 2.5 0 1 1 0-5 2.5 2.5 0 0 1 0 5Z"
    />
    <path
        fill-rule="evenodd"
        clip-rule="evenodd"
        d="M21.3 11.6A9.6 9.6 0 0 0 12 0C6 0 1.4 5.8 2.7 11.6c1 4.7 5 9.2 7.5 11.6 1 1 2.6 1 3.6 0 2.4-2.4 6.5-7 7.5-11.6ZM12 2c4.7 0 8.3 4.6 7.3 9.1-.5 2.2-1.6 4.2-2.8 6a36.2 36.2 0 0 1-4 4.7c-.3.3-.7.3-1 0a36.2 36.2 0 0 1-4-4.7 16.8 16.8 0 0 1-2.8-6A7.6 7.6 0 0 1 12 2Z"
    />
</symbol>

<symbol id="check" viewBox="0 0 24 24">
    <path
        fill-rule="evenodd"
        clip-rule="evenodd"
        d="M22 12a10 10 0 1 1-20 0 10 10 0 0 1 20 0Zm-6-3c.3.3.3.7 0 1l-5 5c-.3.3-.7.3-1 0l-2-2a.7.7 0 1 1 1-1l1.5 1.4 2.2-2.2L15 9c.3-.3.7-.3 1 0Z" />
</symbol>

<symbol id="error" viewBox="0 0 16 16">
    <path
        fill-rule="evenodd"
        d="m7.493.015-.386.04c-1.873.187-3.76 1.153-5.036 2.579C.66 4.211-.057 6.168.009 8.253c.115 3.601 2.59 6.65 6.101 7.518a8.034 8.034 0 0 0 6.117-.98 8 8 0 0 0 3.544-4.904c.172-.701.212-1.058.212-1.887s-.04-1.186-.212-1.887C14.979 2.878 12.315.498 9 .064 8.716.027 7.683-.006 7.493.015m1.36 1.548a6.519 6.519 0 0 1 3.091 1.271c.329.246.976.893 1.222 1.222.561.751.976 1.634 1.164 2.479a6.766 6.766 0 0 1 0 2.93c-.414 1.861-1.725 3.513-3.463 4.363a6.76 6.76 0 0 1-1.987.616c-.424.065-1.336.065-1.76 0-1.948-.296-3.592-1.359-4.627-2.993a7.502 7.502 0 0 1-.634-1.332A6.158 6.158 0 0 1 1.514 8c0-1.039.201-1.925.646-2.84.34-.698.686-1.18 1.253-1.747A5.956 5.956 0 0 1 5.16 2.16a6.452 6.452 0 0 1 3.693-.597M7.706 4.29c-.224.073-.351.201-.413.415-.036.122-.04.401-.034 2.111.008 1.97.008 1.971.066 2.08a.687.687 0 0 0 .346.308c.132.046.526.046.658 0a.687.687 0 0 0 .346-.308c.058-.109.058-.11.066-2.08.008-2.152.008-2.154-.145-2.335-.124-.148-.257-.197-.556-.205a1.705 1.705 0 0 0-.334.014m.08 6.24a.858.858 0 0 0-.467.402.849.849 0 0 0-.025.563A.777.777 0 0 0 8 12c.303 0 .612-.22.706-.505a.849.849 0 0 0-.025-.563.948.948 0 0 0-.348-.352c-.116-.06-.429-.089-.547-.05" />
</symbol>

</defs>
</svg>